<svg xmlns="http://www.w3.org/2000/svg" version="1.1" xmlns:xlink="http://www.w3.org/1999/xlink" xmlns:svgjs="http://svgjs.dev/svgjs" width="1400" height="600" preserveAspectRatio="none" viewBox="0 0 1400 600"><g mask="url(&quot;#SvgjsMask1002&quot;)" fill="none"><rect width="1400" height="600" x="0" y="0" fill="url(&quot;#SvgjsLinearGradient1003&quot;)"></rect><path d="M765.384,497.946C792.632,497.633,817.266,482.493,830.907,458.903C844.564,435.285,846.635,405.643,832.112,382.548C818.361,360.68,791.216,354.86,765.384,354.705C739.199,354.548,711.449,359.735,697.258,381.741C682.021,405.37,682.983,436.183,697.203,460.438C711.263,484.421,737.585,498.265,765.384,497.946" fill="rgba(28, 83, 142, 0.4)" class="triangle-float1"></path><path d="M1013.87,734.17C1057.112,734.358,1101.087,719.107,1123.004,681.831C1145.179,644.116,1138.927,597.136,1116.547,559.542C1094.718,522.874,1056.465,495.925,1013.87,498.513C974.578,500.9,950.732,536.918,930.743,570.829C910.292,605.524,888.099,644.998,906.366,680.891C925.808,719.094,971.004,733.984,1013.87,734.17" fill="rgba(28, 83, 142, 0.4)" class="triangle-float3"></path><path d="M98.984,619.882C147.799,621.737,204.188,620.668,229.408,578.832C255.102,536.21,234.062,482.901,206.567,441.419C182.314,404.829,142.879,381.514,98.984,382.06C56.026,382.594,18.302,407.357,-4.064,444.037C-27.499,482.47,-38.087,530.693,-15.328,569.53C7.235,608.032,54.39,618.187,98.984,619.882" fill="rgba(28, 83, 142, 0.4)" class="triangle-float2"></path><path d="M1006.23,161.326C1052.062,162.089,1100.772,152.612,1125.487,114.008C1151.873,72.794,1149.672,18.831,1124.215,-22.963C1099.714,-63.187,1053.256,-84.401,1006.23,-81.778C963.333,-79.385,930.77,-48.02,909.033,-10.961C886.965,26.662,872.223,72.162,893.654,110.151C915.362,148.63,962.056,160.591,1006.23,161.326" fill="rgba(28, 83, 142, 0.4)" class="triangle-float1"></path><path d="M965.703,559.42C1010.349,560.527,1058.608,554.68,1083.506,517.604C1110.91,476.797,1112.417,421.599,1086.162,380.043C1061.354,340.778,1011.999,327.429,965.703,331.153C925.692,334.371,895.3,362.598,874.705,397.052C853.402,432.691,837.298,475.785,857.598,512.005C878.217,548.795,923.542,558.375,965.703,559.42" fill="rgba(28, 83, 142, 0.4)" class="triangle-float3"></path><path d="M1027.027,57.557C1046.609,58.939,1067.51,50.635,1076.196,33.03C1084.268,16.671,1073.419,-1.104,1063.535,-16.436C1054.767,-30.037,1043.203,-42.816,1027.027,-43.242C1010.221,-43.685,995.115,-33.19,987.028,-18.451C979.238,-4.255,981.027,12.517,988.568,26.847C996.756,42.407,1009.488,56.319,1027.027,57.557" fill="rgba(28, 83, 142, 0.4)" class="triangle-float3"></path><path d="M947.525,201.702C987.732,198.97,1012.012,162.012,1032.124,127.089C1052.18,92.262,1074.346,51.432,1054.034,16.753C1033.841,-17.724,987.479,-17.585,947.525,-17.35C908.161,-17.118,865.312,-14.55,843.164,17.993C818.609,54.073,818.8,102.172,840.357,140.119C862.169,178.515,903.468,204.696,947.525,201.702" fill="rgba(28, 83, 142, 0.4)" class="triangle-float2"></path><path d="M1112.978,36.514C1130.712,36.93,1148.722,29.418,1157.128,13.797C1165.198,-1.198,1158.928,-18.561,1150.614,-33.422C1142.031,-48.764,1130.558,-65.043,1112.978,-65.121C1095.315,-65.199,1083.019,-49.37,1074.759,-33.758C1067.135,-19.349,1064.489,-2.516,1072.278,11.805C1080.405,26.748,1095.973,36.115,1112.978,36.514" fill="rgba(28, 83, 142, 0.4)" class="triangle-float2"></path><path d="M387.524,239.233C410.606,239.601,436.02,237.973,448.81,218.755C462.716,197.861,461.402,169.669,447.903,148.511C435.285,128.733,410.961,121.656,387.524,122.697C366.029,123.651,347.051,135.17,335.767,153.49C323.838,172.858,317.776,197.38,329.531,216.854C341.008,235.867,365.319,238.879,387.524,239.233" fill="rgba(28, 83, 142, 0.4)" class="triangle-float3"></path><path d="M158.549,465.486C186.721,465.614,206.785,440.708,219.658,415.649C231.278,393.029,232.748,366.878,220.714,344.476C207.974,320.759,185.47,301.699,158.549,301.888C131.889,302.075,110.388,321.795,97.878,345.339C86.183,367.349,87.156,392.852,98.391,415.1C111.028,440.125,130.514,465.359,158.549,465.486" fill="rgba(28, 83, 142, 0.4)" class="triangle-float1"></path></g><defs><mask id="SvgjsMask1002"><rect width="1400" height="600" fill="#ffffff"></rect></mask><linearGradient x1="50%" y1="0%" x2="50%" y2="100%" gradientUnits="userSpaceOnUse" id="SvgjsLinearGradient1003"><stop stop-color="rgba(17, 27, 99, 1)" offset="0.26"></stop><stop stop-color="rgba(8, 20, 53, 1)" offset="0.5"></stop></linearGradient><style>
                @keyframes float1 {
                    0%{transform: translate(0, 0)}
                    50%{transform: translate(-10px, 0)}
                    100%{transform: translate(0, 0)}
                }

                .triangle-float1 {
                    animation: float1 5s infinite;
                }

                @keyframes float2 {
                    0%{transform: translate(0, 0)}
                    50%{transform: translate(-5px, -5px)}
                    100%{transform: translate(0, 0)}
                }

                .triangle-float2 {
                    animation: float2 4s infinite;
                }

                @keyframes float3 {
                    0%{transform: translate(0, 0)}
                    50%{transform: translate(0, -10px)}
                    100%{transform: translate(0, 0)}
                }

                .triangle-float3 {
                    animation: float3 6s infinite;
                }
            </style></defs></svg>