<svg xmlns="http://www.w3.org/2000/svg" version="1.1" xmlns:xlink="http://www.w3.org/1999/xlink" xmlns:svgjs="http://svgjs.dev/svgjs" width="1440" height="560" preserveAspectRatio="none" viewBox="0 0 1440 560"><g mask="url(&quot;#SvgjsMask1022&quot;)" fill="none"><rect width="1440" height="560" x="0" y="0" fill="#0e2a47"></rect><path d="M 0,149 C 57.6,142 172.8,104.8 288,114 C 403.2,123.2 460.8,193.6 576,195 C 691.2,196.4 748.8,121.8 864,121 C 979.2,120.2 1036.8,188.6 1152,191 C 1267.2,193.4 1382.4,144.6 1440,133L1440 560L0 560z" fill="#184a7e"></path><path d="M 0,356 C 96,391.8 288,529 480,535 C 672,541 768,400 960,386 C 1152,372 1344,449.2 1440,465L1440 560L0 560z" fill="#2264ab"></path></g><defs><mask id="SvgjsMask1022"><rect width="1440" height="560" fill="#ffffff"></rect></mask></defs></svg>